<svg xmlns="http://www.w3.org/2000/svg" viewBox="0 0 300 380" fill="none">
  <g stroke="#80634f" stroke-width="2" stroke-linecap="round"><path d="M28 378C48 294 91 216 153 150 204 95 247 59 280 12"/><path d="M75 282c-28-2-47-16-59-38M103 233c20-6 37-22 46-42M142 163c-24-7-42-21-51-42M187 112c18 2 35-5 49-20M226 69c-1-21 7-38 24-53"/></g>
  <g fill="#d9ad8f" stroke="#9a6b58" stroke-width="2"><path d="M45 248c-17-22 3-40 18-28 12-14 34-1 25 18 17 12 1 34-17 25-10 18-34 6-26-15Z"/><circle cx="66" cy="245" r="6" fill="#8d573f"/><path d="M115 190c-14-19 3-34 16-25 11-12 29 0 21 16 15 10 1 29-15 22-8 16-28 5-22-13Z"/><circle cx="132" cy="186" r="5" fill="#8d573f"/></g>
  <g fill="#b88d69" stroke="#80634f" stroke-width="1"><path d="M76 282c-26-5-38-21-40-37 23 0 38 13 40 37Z"/><path d="M104 233c15-19 35-25 50-16-8 19-28 27-50 16Z"/><path d="M143 163c-23-9-35-25-37-43 23 1 37 17 37 43Z"/><path d="M187 112c19-15 40-16 53-5-12 17-34 18-53 5Z"/></g>
  <g fill="#e7c9a3" stroke="#9a6b58" stroke-width="2"><path d="M214 89c5-20 21-25 31-17-3 12-12 21-31 17Z"/><path d="M215 89c20-5 32 6 33 18-13 3-25-2-33-18Z"/><path d="M215 90c-13 15-11 31 0 38 9-10 10-23 0-38Z"/><circle cx="215" cy="90" r="5" fill="#80543e"/></g>
</svg>
